<?xml version="1.0" encoding="UTF-8" standalone="no"?>
<svg
   viewBox="0 0 496 512"
   version="1.1"
   id="svg4"
   sodipodi:docname="github.svg"
   inkscape:version="1.2 (dc2aeda, 2022-05-15)"
   xmlns:inkscape="http://www.inkscape.org/namespaces/inkscape"
   xmlns:sodipodi="http://sodipodi.sourceforge.net/DTD/sodipodi-0.dtd"
   xmlns="http://www.w3.org/2000/svg"
   xmlns:svg="http://www.w3.org/2000/svg">
  <defs
     id="defs8" />
  <sodipodi:namedview
     id="namedview6"
     pagecolor="#ffffff"
     bordercolor="#000000"
     borderopacity="0.25"
     inkscape:showpageshadow="2"
     inkscape:pageopacity="0.0"
     inkscape:pagecheckerboard="0"
     inkscape:deskcolor="#d1d1d1"
     showgrid="false"
     inkscape:zoom="0.4609375"
     inkscape:cx="298.30508"
     inkscape:cy="277.69492"
     inkscape:window-width="1309"
     inkscape:window-height="826"
     inkscape:window-x="0"
     inkscape:window-y="25"
     inkscape:window-maximized="0"
     inkscape:current-layer="svg4" />
  <!--! Font Awesome Pro 6.1.1 by @fontawesome - https://fontawesome.com License - https://fontawesome.com/license (Commercial License) Copyright 2022 Fonticons, Inc. -->
  <path
     d="m 172.36386,392.0466 c 0,1.88336 -2.11892,3.39005 -4.7906,3.39005 -3.04019,0.28251 -5.1591,-1.22418 -5.1591,-3.39005 0,-1.88336 2.11891,-3.39005 4.79059,-3.39005 2.76381,-0.28251 5.15911,1.22418 5.15911,3.39005 z m -28.65145,-4.23756 c -0.64489,1.88336 1.19765,4.04923 3.96145,4.61423 2.3953,0.94169 5.15911,0 5.71187,-1.88336 0.55276,-1.88336 -1.19765,-4.04923 -3.96146,-4.89674 -2.3953,-0.65918 -5.06697,0.2825 -5.71186,2.16587 z m 40.72006,-1.60086 c -2.67168,0.65917 -4.51421,2.44837 -4.23783,4.61424 0.27638,1.88336 2.67168,3.10754 5.43548,2.44837 2.67168,-0.65918 4.51422,-2.44837 4.23784,-4.33174 -0.27638,-1.78919 -2.76381,-3.01338 -5.43549,-2.73087 z M 245.05194,25.355933 c -127.77994,0 -225.526516,99.159027 -225.526516,229.770217 0,104.43245 64.304539,193.798 156.154996,225.25015 11.79224,2.16587 15.93795,-5.27341 15.93795,-11.39434 0,-5.83843 -0.27638,-38.04392 -0.27638,-57.81923 0,0 -64.4888,14.12522 -78.03144,-28.0621 0,0 -10.50246,-27.40292 -25.61126,-34.46553 0,0 -21.097047,-14.7844 1.47403,-14.50189 0,0 22.93958,1.88336 35.56096,24.29537 20.17578,36.3489 53.98633,25.89624 67.16047,19.68114 2.11891,-15.0669 8.10716,-25.51956 14.74029,-31.73466 -51.4989,-5.83842 -103.45844,-13.46604 -103.45844,-104.05577 0,-25.89624 7.00164,-38.89144 21.74193,-55.46503 -2.3953,-6.12093 -10.22608,-31.35798 2.3953,-63.94015 19.25451,-6.12093 63.56752,25.42539 63.56752,25.42539 18.42537,-5.27342 38.23264,-8.00429 57.85566,-8.00429 19.62302,0 39.43029,2.73087 57.85566,8.00429 0,0 44.31301,-31.64049 63.56752,-25.42539 12.62138,32.67633 4.7906,57.81922 2.3953,63.94015 14.7403,16.66776 23.76873,29.66296 23.76873,55.46503 0,90.87223 -54.26271,98.12318 -105.76162,104.05577 8.47567,7.43928 15.66156,21.5645 15.66156,43.69401 0,31.73466 -0.27638,71.00277 -0.27638,78.72455 0,6.12093 4.23784,13.56021 15.93795,11.39435 92.12684,-31.26382 154.58884,-120.62937 154.58884,-225.06182 0,-130.61119 -103.6427,-229.770217 -231.42263,-229.770217 z M 109.07271,350.14179 c -1.19765,0.94168 -0.92126,3.10754 0.64489,4.89674 1.47403,1.50669 3.59295,2.16587 4.7906,0.94168 1.19765,-0.94168 0.92127,-3.10755 -0.64489,-4.89674 -1.47403,-1.50669 -3.59295,-2.16587 -4.7906,-0.94168 z m -9.949691,-7.62762 c -0.644888,1.22418 0.276381,2.73087 2.118921,3.67256 1.47403,0.94168 3.31656,0.65917 3.96145,-0.65918 0.64489,-1.22419 -0.27638,-2.73088 -2.11892,-3.67256 -1.84253,-0.56501 -3.316563,-0.2825 -3.961451,0.65918 z m 29.849091,33.52385 c -1.47403,1.22419 -0.92127,4.04923 1.19765,5.83842 2.11892,2.16587 4.7906,2.44838 5.98825,0.94169 1.19765,-1.22419 0.64488,-4.04923 -1.19765,-5.83843 -2.02679,-2.16586 -4.7906,-2.44837 -5.98825,-0.94168 z m -10.50246,-13.84271 c -1.47403,0.94168 -1.47403,3.39005 0,5.55592 1.47403,2.16586 3.96146,3.10754 5.15911,2.16586 1.47402,-1.22418 1.47402,-3.67255 0,-5.83842 -1.28978,-2.16587 -3.68508,-3.10755 -5.15911,-1.88336 z"
     id="path2"
     style="stroke-width:0.931419" />
  <path
     style="fill:#000000;fill-opacity:1;stroke-width:2.16949"
     d="M 166.98827,476.3302 C 113.58472,456.64729 61.074256,404.54652 38.9472,349.28814 8.3597581,272.90145 16.67047,186.79787 60.977198,121.0452 72.815067,103.4774 99.225183,77.095856 116.89474,65.188157 136.62692,51.890432 163.8993,39.645289 188.29926,33.127944 c 18.62479,-4.974772 25.19091,-5.62434 56.85328,-5.62434 31.6306,0 38.23803,0.652236 56.7746,5.604377 67.1107,17.928975 117.85841,57.795384 147.85206,116.149689 19.49047,37.9198 26.67483,72.32298 24.73509,118.44719 -1.45987,34.71384 -7.99718,61.9975 -21.87388,91.29151 -12.68445,26.77712 -23.00372,42.09271 -41.52177,61.62543 -20.71938,21.85467 -37.04625,34.00057 -63.77832,47.446 -40.53972,20.39027 -41.8332,18.96389 -41.09711,-45.32025 0.55769,-48.70478 -0.81388,-59.27639 -9.04888,-69.74548 l -4.35027,-5.53047 5.98474,-1.1451 c 3.29162,-0.62981 10.37798,-1.76764 15.74747,-2.52852 55.11103,-7.80961 82.26126,-40.00298 82.40302,-97.7093 0.0488,-19.9156 -4.51992,-34.78541 -14.95518,-48.67344 -7.85668,-10.45627 -8.27268,-11.73874 -6.21427,-19.15829 2.63251,-9.48894 0.95152,-39.69221 -2.78174,-49.98065 -2.61202,-7.19844 -2.82275,-7.29705 -13.01376,-6.09007 -10.01691,1.18635 -28.99781,9.53719 -45.83248,20.16445 -8.11644,5.12368 -8.20543,5.1298 -22.85993,1.57117 -19.56261,-4.7505 -63.37674,-4.76354 -84.96513,-0.0253 -15.35213,3.36951 -16.25665,3.34392 -21.81939,-0.6171 -12.10127,-8.61687 -37.48802,-19.87925 -47.47689,-21.06228 l -10.39187,-1.23077 -2.84091,9.4729 c -4.27141,14.24283 -5.32418,32.28213 -2.61988,44.89186 2.36847,11.04379 2.26795,11.47286 -5.08603,21.70907 -21.9081,30.49447 -17.229145,91.82206 9.15776,120.03181 14.76051,15.78016 31.51781,22.65589 70.43474,28.90018 l 8.0533,1.29217 -4.28327,6.96798 c -2.35579,3.83238 -5.29675,10.67183 -6.53545,15.1988 -2.3978,8.76297 -6.30379,11.2763 -21.23522,13.66394 -18.32407,2.93013 -30.92318,-4.65302 -51.99881,-31.29704 -8.93018,-11.28963 -21.848922,-18.19073 -32.377608,-17.29588 -9.928278,0.84382 -11.23108,4.75246 -3.657042,10.97174 12.883046,10.5787 19.0189,18.3654 27.03512,34.30886 13.70342,27.25474 24.69038,33.48535 59.04763,33.48535 h 21.15281 l -2.6e-4,28.88838 c -1.5e-4,15.88862 -1.0109,30.77675 -2.2461,33.08475 -2.61321,4.88283 -10.30447,5.26203 -21.68116,1.06893 z"
     id="path902" />
  <path
     style="fill:#000000;fill-opacity:1;stroke-width:2.16949"
     d="M 154.58781,470.85776 C 104.50488,447.11253 62.665127,403.9022 40.921997,353.46857 19.083243,302.81311 14.634873,245.42078 28.410495,192.04662 35.037439,166.37029 55.727119,125.81973 72.130603,106.35779 102.00668,70.911282 143.11681,44.88583 187.66102,33.219358 c 18.97778,-4.970429 26.04232,-5.689172 56.40678,-5.7388 38.84129,-0.06348 53.63694,2.43872 85.75457,14.502588 38.77029,14.5627 76.80682,43.379796 101.55089,76.936584 51.43402,69.7525 58.26792,167.55182 17.37491,248.65071 -12.03907,23.87584 -19.4196,34.06004 -40.67868,56.13143 -20.57722,21.36344 -38.88712,34.44183 -66.01999,47.15672 -35.15325,16.47336 -36.15119,15.11931 -36.15119,-49.05147 0,-49.14562 -1.04952,-57.07745 -9.07837,-68.61121 l -4.07572,-5.85494 8.20415,-1.32046 c 41.44694,-6.67092 61.37114,-15.36455 75.81052,-33.0788 13.6328,-16.72474 19.17702,-36.15781 19.03065,-66.70442 -0.1254,-26.17016 -1.67917,-31.43399 -14.61617,-49.51632 -6.98268,-9.75983 -7.34549,-11.07635 -5.38071,-19.52543 2.35626,-10.13264 0.96386,-35.15921 -2.64654,-47.56842 -2.0365,-6.99956 -3.25024,-8.13559 -8.69213,-8.13559 -8.86684,0 -27.05376,7.17754 -43.8392,17.30132 l -14.26107,8.60124 -14.87177,-3.1509 c -19.44717,-4.12029 -66.73309,-4.11391 -86.20597,0.0117 -14.18056,3.00432 -15.23026,2.9469 -20.98053,-1.14766 -11.03127,-7.85496 -38.93619,-19.97876 -48.45346,-21.0515 l -9.37243,-1.0564 -2.36256,9.46647 c -4.30785,17.26099 -5.22905,31.03346 -2.91354,43.5592 2.24545,12.14672 2.1481,12.59002 -5.14421,23.42636 -12.25576,18.21198 -16.121863,39.63781 -12.18819,67.54662 6.59406,46.7838 27.05522,67.7653 75.76493,77.6917 11.95346,2.43595 22.2313,4.42902 22.83965,4.42902 0.60835,0 -0.76845,3.66102 -3.05955,8.13559 -2.2911,4.47458 -5.53971,11.70708 -7.21914,16.07222 -2.76264,7.18059 -4.18459,8.18975 -14.92727,10.59387 -21.59089,4.83183 -34.66912,-0.93036 -51.06174,-22.49745 -5.26263,-6.92383 -13.28601,-15.04896 -17.82974,-18.05588 -9.147312,-6.05347 -23.069968,-8.64703 -28.097014,-5.23407 -2.685188,1.82302 -1.14113,4.2309 8.830031,13.77002 7.821257,7.48238 15.502023,18.00598 21.772503,29.83105 11.86336,22.37228 20.57893,29.32346 40.99691,32.69752 7.75251,1.28108 19.70903,1.76881 26.57005,1.08379 l 12.47457,-1.24546 v 29.3975 c 0,16.16863 -1.01062,31.28586 -2.24582,33.59386 -3.46958,6.48298 -13.986,5.12421 -34.08162,-4.40351 z"
     id="path904" />
  <path
     style="fill:#000000;fill-opacity:1;stroke-width:2.16949"
     d="M 154.21214,470.73712 C 103.24019,446.08764 60.35863,401.24683 39.263087,350.53601 3.0981868,263.60049 19.981702,161.3912 81.355932,95.714681 153.47863,18.536235 274.86468,3.8820385 368.83248,61.009395 c 24.74993,15.046623 60.16113,50.787945 73.97549,74.665115 24.14757,41.73746 31.2558,69.43986 31.1529,121.41024 -0.0607,30.71863 -0.8774,40.08593 -4.88699,56.05946 -10.96398,43.67868 -28.7659,76.66649 -57.89028,107.27355 -10.70327,11.24814 -25.35678,24.65868 -32.56337,29.8012 -16.6538,11.88388 -52.1628,29.23867 -59.82425,29.23867 -11.09886,0 -11.7242,-2.88215 -12.89767,-59.44394 -1.07388,-51.76146 -1.14294,-52.38801 -6.89667,-62.58734 l -5.81189,-10.30243 4.72715,-0.93961 c 2.59994,-0.5168 11.07293,-2.06996 18.82886,-3.45147 55.12815,-9.8197 78.26003,-37.48195 78.87783,-94.32606 0.23457,-21.58197 -0.28539,-25.00562 -5.4364,-35.79661 -3.13265,-6.56271 -8.13479,-15.14265 -11.11582,-19.06654 -4.85077,-6.38495 -5.19817,-8.09405 -3.30732,-16.27118 2.55611,-11.0541 0.45227,-38.5935 -3.70914,-48.55317 -2.04728,-4.89984 -4.47056,-7.22775 -7.52384,-7.22775 -7.63427,0 -28.22305,8.16159 -43.53217,17.25657 l -14.58771,8.66639 -16.71847,-3.19877 c -20.82944,-3.98533 -59.76612,-4.00732 -81.98331,-0.0463 l -16.83296,3.00108 -14.65549,-8.4849 c -15.41125,-8.92245 -36.4589,-17.19405 -43.75145,-17.19405 -5.76927,0 -8.23142,5.21221 -11.05318,23.39892 -1.71411,11.04772 -1.70357,18.85958 0.0384,28.46609 2.35578,12.99131 2.27518,13.42253 -4.29274,22.96869 -10.55713,15.34426 -13.53341,25.92827 -13.73046,48.82731 -0.20862,24.24396 3.10267,39.77568 12.1576,57.02556 13.50422,25.7259 28.50114,33.64569 83.54725,44.12095 4.744,0.90279 4.81765,1.21015 1.641,6.8485 -1.82925,3.24682 -5.22303,10.47767 -7.54174,16.06858 -3.5765,8.62369 -5.47041,10.51364 -12.48846,12.46247 -21.7244,6.0326 -36.96581,-0.13668 -54.86981,-22.20982 -13.76432,-16.96946 -21.35131,-22.39004 -34.218293,-24.44757 -7.455751,-1.19222 -9.406468,-0.78433 -10.554262,2.20677 -1.002561,2.61263 1.954636,6.92512 10.268987,14.97532 6.422365,6.21831 14.117708,16.1546 17.100758,22.08065 10.7464,21.34847 15.35262,26.83416 27.53807,32.79595 10.31369,5.04602 14.5431,5.79135 33.35694,5.87834 l 21.54566,0.0996 v 29.00352 c 0,15.95192 -1.01062,30.89186 -2.24582,33.19986 -3.53148,6.59864 -14.41051,5.17024 -34.45729,-4.52415 z"
     id="path906" />
  <path
     style="fill:#c83737;fill-opacity:1;stroke-width:2.16949"
     d="M 150.41085,468.75854 C 85.015311,436.02039 40.228042,377.16226 24.833785,303.72881 20.080448,281.0545 19.491791,235.65714 23.652273,212.61017 39.036752,127.3879 96.166472,61.700443 177.1075,36.168133 229.17528,19.743698 293.9169,24.077532 343.48396,47.305448 c 25.04399,11.736003 42.71269,24.077434 64.03571,44.728327 42.60739,41.264405 64.41364,90.760805 66.98045,152.034025 1.8573,44.33677 -4.26422,77.51192 -21.31504,115.51496 -14.19372,31.63512 -45.73552,70.03629 -74.60881,90.83392 -14.9054,10.73647 -52.56287,29.04095 -59.74541,29.04095 -11.13782,0 -11.75847,-2.85282 -12.93255,-59.44392 -1.07388,-51.76148 -1.14294,-52.38803 -6.89667,-62.58736 l -5.81189,-10.30243 4.72715,-0.97762 c 2.59994,-0.53767 12.40339,-2.45092 21.78547,-4.25164 31.55217,-6.05592 54.10495,-20.46056 64.84968,-41.42008 7.4724,-14.57625 10.2449,-29.28697 10.22201,-54.23729 -0.0239,-25.98732 -2.17725,-33.47 -14.54598,-50.54453 -6.16381,-8.50889 -6.35876,-9.45355 -4.35322,-21.09418 2.23603,-12.97851 -0.6633,-40.86702 -5.11295,-49.18126 -3.53863,-6.61203 -13.96762,-4.10467 -42.47725,10.21248 -23.02325,11.56195 -24.67933,12.05942 -32.54237,9.77549 -15.44767,-4.48701 -62.70163,-5.24893 -84.88583,-1.3687 l -20.19438,3.53219 -14.51748,-8.55293 c -13.92545,-8.20413 -37.79224,-17.52432 -44.87562,-17.52432 -7.17897,0 -13.02983,30.82968 -9.73434,51.29278 2.08868,12.96954 1.97132,13.52377 -5.48602,25.90792 -10.09337,16.7617 -11.88654,24.10201 -11.90093,48.71637 -0.0253,43.24558 13.77353,70.66517 42.60624,84.6628 7.50752,3.64472 32.6546,10.47315 52.15864,14.16315 4.70622,0.89039 4.68679,1.01954 -2.50052,16.61952 -6.05498,13.14233 -8.43526,16.1471 -14.50579,18.31162 -20.55577,7.32939 -37.1885,1.06522 -55.26575,-20.81397 -13.41331,-16.23437 -30.514354,-27.28066 -40.066111,-25.88045 -8.296902,1.21628 -7.07023,5.56672 4.927091,17.4741 6.352147,6.30452 15.21054,18.43563 19.68532,26.95802 9.23561,17.58954 19.46069,27.68505 31.39796,31.00006 4.50719,1.25166 17.2254,2.2812 28.26269,2.28783 l 20.06779,0.0121 v 29.43076 c 0,16.18692 -1.01062,31.31912 -2.24582,33.62712 -3.79423,7.08959 -14.86678,5.20762 -38.25858,-6.50273 z"
     id="path908" />
</svg>
