<?xml version="1.0" encoding="UTF-8" standalone="no"?>
<svg
   viewBox="0 0 640 512"
   version="1.1"
   id="svg1442"
   sodipodi:docname="link.svg"
   inkscape:version="1.2 (dc2aeda, 2022-05-15)"
   xmlns:inkscape="http://www.inkscape.org/namespaces/inkscape"
   xmlns:sodipodi="http://sodipodi.sourceforge.net/DTD/sodipodi-0.dtd"
   xmlns="http://www.w3.org/2000/svg"
   xmlns:svg="http://www.w3.org/2000/svg">
  <defs
     id="defs1446" />
  <sodipodi:namedview
     id="namedview1444"
     pagecolor="#ffffff"
     bordercolor="#000000"
     borderopacity="0.25"
     inkscape:showpageshadow="2"
     inkscape:pageopacity="0.0"
     inkscape:pagecheckerboard="0"
     inkscape:deskcolor="#d1d1d1"
     showgrid="false"
     inkscape:zoom="0.4609375"
     inkscape:cx="369.89831"
     inkscape:cy="282.0339"
     inkscape:window-width="1309"
     inkscape:window-height="740"
     inkscape:window-x="0"
     inkscape:window-y="25"
     inkscape:window-maximized="0"
     inkscape:current-layer="svg1442" />
  <!--! Font Awesome Pro 6.1.1 by @fontawesome - https://fontawesome.com License - https://fontawesome.com/license (Commercial License) Copyright 2022 Fonticons, Inc. -->
  <path
     d="M172.5 131.1C228.1 75.51 320.5 75.51 376.1 131.1C426.1 181.1 433.5 260.8 392.4 318.3L391.3 319.9C381 334.2 361 337.6 346.7 327.3C332.3 317 328.9 297 339.2 282.7L340.3 281.1C363.2 249 359.6 205.1 331.7 177.2C300.3 145.8 249.2 145.8 217.7 177.2L105.5 289.5C73.99 320.1 73.99 372 105.5 403.5C133.3 431.4 177.3 435 209.3 412.1L210.9 410.1C225.3 400.7 245.3 404 255.5 418.4C265.8 432.8 262.5 452.8 248.1 463.1L246.5 464.2C188.1 505.3 110.2 498.7 60.21 448.8C3.741 392.3 3.741 300.7 60.21 244.3L172.5 131.1zM467.5 380C411 436.5 319.5 436.5 263 380C213 330 206.5 251.2 247.6 193.7L248.7 192.1C258.1 177.8 278.1 174.4 293.3 184.7C307.7 194.1 311.1 214.1 300.8 229.3L299.7 230.9C276.8 262.1 280.4 306.9 308.3 334.8C339.7 366.2 390.8 366.2 422.3 334.8L534.5 222.5C566 191 566 139.1 534.5 108.5C506.7 80.63 462.7 76.99 430.7 99.9L429.1 101C414.7 111.3 394.7 107.1 384.5 93.58C374.2 79.2 377.5 59.21 391.9 48.94L393.5 47.82C451 6.731 529.8 13.25 579.8 63.24C636.3 119.7 636.3 211.3 579.8 267.7L467.5 380z"
     id="path1440" />
  <path
     style="fill:#c83737;stroke-width:2.16949"
     d="m 331.75077,417.57863 c -27.26787,-6.6207 -56.12419,-24.00686 -74.58945,-44.94069 -20.34993,-23.07044 -35.87318,-64.15477 -35.87318,-94.94302 0,-35.23819 20.50232,-84.78107 39.05525,-94.37517 14.11873,-7.30108 32.58246,-1.72222 41.22765,12.45703 6.61701,10.85276 5.42708,18.98091 -5.97782,40.83324 -10.22618,19.59387 -10.30508,19.90599 -10.30508,40.76568 0,19.37152 0.55835,22.1548 7.11717,35.47767 20.06243,40.75257 66.35495,56.76214 108.50267,37.524 10.41969,-4.75602 22.58762,-15.83308 76.83933,-69.95057 69.64653,-69.4742 75.13188,-76.49301 79.73508,-102.02568 6.28092,-34.8384 -13.12204,-71.24501 -46.08471,-86.470728 -11.88707,-5.490745 -15.97526,-6.235477 -34.22939,-6.235477 -20.46715,0 -20.99516,0.133359 -41.63926,10.516634 -18.34818,9.228501 -21.97948,10.335821 -29.6468,9.040441 -15.53685,-2.62494 -26.22121,-15.013882 -26.22121,-30.404532 0,-16.143241 9.04218,-25.662742 36.97699,-38.928922 82.26494,-39.0674532 180.95149,8.954634 200.68571,97.656144 4.96683,22.32496 3.52071,57.11579 -3.19499,76.866 -9.93981,29.23188 -18.96342,40.7882 -80.26666,102.79532 -31.71228,32.07641 -64.71751,64.394 -73.34499,71.81685 -28.35589,24.39667 -59.47549,35.9649 -95.89578,35.64777 -11.41629,-0.0994 -26.20803,-1.50431 -32.87053,-3.12199 z"
     id="path1448" />
  <path
     style="fill:#c83737;stroke-width:2.16949"
     d="M 136.82698,487.94388 C 80.054747,476.80751 34.932955,433.51671 22.676285,378.42532 c -4.966834,-22.32496 -3.520727,-57.11579 3.194992,-76.866 10.434274,-30.68607 17.758497,-39.74211 93.223243,-115.26598 68.70878,-68.7626 71.26448,-71.04692 89.17667,-79.70725 10.14237,-4.90372 24.25934,-10.389957 31.37106,-12.191646 18.5152,-4.690663 51.01512,-4.221947 71.5579,1.032012 86.73528,22.183144 132.12982,122.276684 91.9311,202.705144 -12.77891,25.56771 -22.09024,33.8006 -38.22811,33.8006 -17.15211,0 -31.95256,-16.53766 -30.09475,-33.62712 0.51885,-4.77288 4.38977,-14.33296 8.60201,-21.24462 36.27242,-59.51755 -13.13623,-133.57709 -81.86249,-122.70524 -24.6221,3.89499 -32.16103,9.82582 -102.46838,80.61128 -68.65797,69.12487 -72.154559,73.5708 -76.813657,97.66871 -6.627191,34.27733 13.676297,72.60008 46.195517,87.19383 25.85124,11.60136 55.5236,9.46103 78.33812,-5.65068 18.73739,-12.41114 37.68103,-9.88552 48.61488,6.48145 9.10724,13.63271 5.4464,31.51982 -8.65176,42.27302 -27.22808,20.76787 -75.53744,31.75855 -109.93565,25.01105 z"
     id="path1450" />
</svg>
